<svg width="80" height="115" viewBox="0 0 80 115" fill="none" xmlns="http://www.w3.org/2000/svg">
<rect width="80" height="115" fill="white"/>
<path d="M11.321 90V79.0909H15.0071C15.8594 79.0909 16.5589 79.2365 17.1058 79.5277C17.6527 79.8153 18.0575 80.2113 18.3203 80.7156C18.5831 81.2198 18.7145 81.7933 18.7145 82.4361C18.7145 83.0788 18.5831 83.6488 18.3203 84.146C18.0575 84.6431 17.6545 85.0337 17.1112 85.3178C16.5678 85.5984 15.8736 85.7386 15.0284 85.7386H12.0455V84.5455H14.9858C15.5682 84.5455 16.0369 84.4602 16.392 84.2898C16.7507 84.1193 17.0099 83.8778 17.1697 83.5653C17.3331 83.2493 17.4148 82.8729 17.4148 82.4361C17.4148 81.9993 17.3331 81.6175 17.1697 81.2908C17.0064 80.9641 16.7454 80.712 16.3867 80.5344C16.0281 80.3533 15.554 80.2628 14.9645 80.2628H12.642V90H11.321ZM16.456 85.0994L19.1406 90H17.6065L14.9645 85.0994H16.456ZM24.0878 90.1705C23.2994 90.1705 22.6194 89.9964 22.0477 89.6484C21.4795 89.2969 21.0409 88.8068 20.732 88.1783C20.4266 87.5462 20.2739 86.8111 20.2739 85.973C20.2739 85.1349 20.4266 84.3963 20.732 83.7571C21.0409 83.1143 21.4706 82.6136 22.021 82.255C22.575 81.8928 23.2213 81.7116 23.96 81.7116C24.3861 81.7116 24.8069 81.7827 25.2224 81.9247C25.6379 82.0668 26.0161 82.2976 26.357 82.6172C26.6979 82.9332 26.9695 83.3523 27.172 83.8743C27.3744 84.3963 27.4756 85.0391 27.4756 85.8026V86.3352H21.1688V85.2486H26.1972C26.1972 84.7869 26.1048 84.375 25.9202 84.0128C25.7391 83.6506 25.4798 83.3647 25.1425 83.1552C24.8087 82.9457 24.4145 82.8409 23.96 82.8409C23.4593 82.8409 23.026 82.9652 22.6602 83.2138C22.298 83.4588 22.0193 83.7784 21.824 84.1726C21.6286 84.5668 21.531 84.9893 21.531 85.4403V86.1648C21.531 86.7827 21.6375 87.3065 21.8506 87.7362C22.0672 88.1623 22.3673 88.4872 22.7508 88.7109C23.1343 88.9311 23.58 89.0412 24.0878 89.0412C24.4181 89.0412 24.7164 88.995 24.9827 88.9027C25.2526 88.8068 25.4852 88.6648 25.6805 88.4766C25.8758 88.2848 26.0267 88.0469 26.1333 87.7628L27.3477 88.1037C27.2199 88.5156 27.0051 88.8778 26.7032 89.1903C26.4014 89.4993 26.0285 89.7408 25.5846 89.9148C25.1407 90.0852 24.6418 90.1705 24.0878 90.1705ZM32.6904 93.2386C32.0832 93.2386 31.5612 93.1605 31.1244 93.0043C30.6876 92.8516 30.3236 92.6491 30.0324 92.397C29.7448 92.1484 29.5157 91.8821 29.3453 91.598L30.3467 90.8949C30.4603 91.044 30.6041 91.2145 30.7781 91.4062C30.9521 91.6016 31.1901 91.7702 31.4919 91.9123C31.7973 92.0579 32.1968 92.1307 32.6904 92.1307C33.3509 92.1307 33.896 91.9709 34.3257 91.6513C34.7554 91.3317 34.9703 90.831 34.9703 90.1491V88.4872H34.8637C34.7714 88.6364 34.64 88.821 34.4695 89.0412C34.3026 89.2578 34.0612 89.4513 33.7451 89.6218C33.4326 89.7887 33.01 89.8722 32.4774 89.8722C31.8169 89.8722 31.2238 89.7159 30.6982 89.4034C30.1762 89.0909 29.7625 88.6364 29.4571 88.0398C29.1553 87.4432 29.0044 86.7187 29.0044 85.8665C29.0044 85.0284 29.1517 84.2987 29.4465 83.6772C29.7412 83.0522 30.1514 82.5692 30.6769 82.2283C31.2025 81.8839 31.8097 81.7116 32.4987 81.7116C33.0313 81.7116 33.4539 81.8004 33.7664 81.978C34.0825 82.152 34.324 82.3509 34.4909 82.5746C34.6613 82.7947 34.7927 82.9759 34.885 83.1179H35.0129V81.8182H36.2274V90.2344C36.2274 90.9375 36.0676 91.5092 35.748 91.9496C35.4319 92.3935 35.0058 92.7184 34.4695 92.9244C33.9369 93.1339 33.3438 93.2386 32.6904 93.2386ZM32.6478 88.7429C33.1521 88.7429 33.5782 88.6275 33.9262 88.3967C34.2742 88.1658 34.5388 87.8338 34.7199 87.4006C34.901 86.9673 34.9916 86.4489 34.9916 85.8452C34.9916 85.2557 34.9028 84.7354 34.7252 84.2844C34.5477 83.8335 34.2849 83.4801 33.9369 83.2244C33.5889 82.9687 33.1592 82.8409 32.6478 82.8409C32.1151 82.8409 31.6713 82.9759 31.3161 83.2457C30.9646 83.5156 30.7 83.8778 30.5225 84.3324C30.3485 84.7869 30.2615 85.2912 30.2615 85.8452C30.2615 86.4134 30.3502 86.9158 30.5278 87.3526C30.7089 87.7859 30.9752 88.1268 31.3268 88.3754C31.6819 88.6204 32.1222 88.7429 32.6478 88.7429ZM38.5285 90V81.8182H39.7856V90H38.5285ZM39.1677 80.4545C38.9227 80.4545 38.7114 80.3711 38.5338 80.2042C38.3598 80.0373 38.2728 79.8366 38.2728 79.6023C38.2728 79.3679 38.3598 79.1673 38.5338 79.0004C38.7114 78.8335 38.9227 78.75 39.1677 78.75C39.4127 78.75 39.6222 78.8335 39.7963 79.0004C39.9738 79.1673 40.0626 79.3679 40.0626 79.6023C40.0626 79.8366 39.9738 80.0373 39.7963 80.2042C39.6222 80.3711 39.4127 80.4545 39.1677 80.4545ZM47.8835 83.6506L46.7543 83.9702C46.6832 83.782 46.5785 83.5991 46.44 83.4215C46.305 83.2404 46.1204 83.0913 45.886 82.9741C45.6516 82.8569 45.3516 82.7983 44.9858 82.7983C44.4851 82.7983 44.0678 82.9137 43.734 83.1445C43.4038 83.3718 43.2386 83.6612 43.2386 84.0128C43.2386 84.3253 43.3523 84.5721 43.5795 84.7532C43.8068 84.9343 44.1619 85.0852 44.6449 85.206L45.8594 85.5043C46.5909 85.6818 47.136 85.9535 47.4947 86.3192C47.8533 86.6815 48.0327 87.1484 48.0327 87.7202C48.0327 88.1889 47.8977 88.608 47.6278 88.9773C47.3615 89.3466 46.9886 89.6378 46.5092 89.8509C46.0298 90.0639 45.4723 90.1705 44.8366 90.1705C44.0021 90.1705 43.3114 89.9893 42.7646 89.6271C42.2177 89.2649 41.8714 88.7358 41.7259 88.0398L42.919 87.7415C43.0327 88.1818 43.2475 88.5121 43.5636 88.7322C43.8832 88.9524 44.3004 89.0625 44.8153 89.0625C45.4013 89.0625 45.8665 88.9382 46.2109 88.6896C46.5589 88.4375 46.733 88.1357 46.733 87.7841C46.733 87.5 46.6335 87.2621 46.4347 87.0703C46.2358 86.875 45.9304 86.7294 45.5185 86.6335L44.1548 86.3139C43.4055 86.1364 42.8551 85.8612 42.5036 85.4883C42.1555 85.1119 41.9815 84.6413 41.9815 84.0767C41.9815 83.6151 42.1112 83.2067 42.3704 82.8516C42.6332 82.4964 42.9901 82.2177 43.4411 82.0153C43.8956 81.8129 44.4105 81.7116 44.9858 81.7116C45.7955 81.7116 46.4311 81.8892 46.8928 82.2443C47.358 82.5994 47.6882 83.0682 47.8835 83.6506ZM53.4832 81.8182V82.8835H49.2432V81.8182H53.4832ZM50.479 79.858H51.7361V87.6562C51.7361 88.0114 51.7876 88.2777 51.8905 88.4553C51.9971 88.6293 52.132 88.7464 52.2954 88.8068C52.4623 88.8636 52.6381 88.892 52.8227 88.892C52.9612 88.892 53.0748 88.8849 53.1636 88.8707C53.2524 88.853 53.3234 88.8388 53.3767 88.8281L53.6324 89.9574C53.5471 89.9893 53.4282 90.0213 53.2755 90.0533C53.1228 90.0888 52.9292 90.1065 52.6949 90.1065C52.3398 90.1065 51.9917 90.0302 51.6508 89.8775C51.3135 89.7248 51.0329 89.4922 50.8092 89.1797C50.589 88.8672 50.479 88.473 50.479 87.9972V79.858ZM58.7167 90.1705C57.9284 90.1705 57.2483 89.9964 56.6766 89.6484C56.1084 89.2969 55.6698 88.8068 55.3609 88.1783C55.0555 87.5462 54.9028 86.8111 54.9028 85.973C54.9028 85.1349 55.0555 84.3963 55.3609 83.7571C55.6698 83.1143 56.0995 82.6136 56.6499 82.255C57.2039 81.8928 57.8502 81.7116 58.5889 81.7116C59.015 81.7116 59.4358 81.7827 59.8513 81.9247C60.2668 82.0668 60.645 82.2976 60.9859 82.6172C61.3268 82.9332 61.5985 83.3523 61.8009 83.8743C62.0033 84.3963 62.1045 85.0391 62.1045 85.8026V86.3352H55.7977V85.2486H60.8261C60.8261 84.7869 60.7338 84.375 60.5491 84.0128C60.368 83.6506 60.1088 83.3647 59.7714 83.1552C59.4376 82.9457 59.0434 82.8409 58.5889 82.8409C58.0882 82.8409 57.6549 82.9652 57.2892 83.2138C56.9269 83.4588 56.6482 83.7784 56.4529 84.1726C56.2575 84.5668 56.1599 84.9893 56.1599 85.4403V86.1648C56.1599 86.7827 56.2664 87.3065 56.4795 87.7362C56.6961 88.1623 56.9962 88.4872 57.3797 88.7109C57.7632 88.9311 58.2089 89.0412 58.7167 89.0412C59.047 89.0412 59.3453 88.995 59.6116 88.9027C59.8815 88.8068 60.1141 88.6648 60.3094 88.4766C60.5047 88.2848 60.6556 88.0469 60.7622 87.7628L61.9767 88.1037C61.8488 88.5156 61.634 88.8778 61.3321 89.1903C61.0303 89.4993 60.6574 89.7408 60.2135 89.9148C59.7696 90.0852 59.2707 90.1705 58.7167 90.1705ZM64.0168 90V81.8182H65.2313V83.054H65.3165C65.4656 82.6491 65.7355 82.3207 66.1262 82.0685C66.5168 81.8164 66.9571 81.6903 67.4472 81.6903C67.5395 81.6903 67.6549 81.6921 67.7934 81.6957C67.9319 81.6992 68.0367 81.7045 68.1077 81.7116V82.9901C68.0651 82.9794 67.9674 82.9634 67.8147 82.9421C67.6656 82.9173 67.5075 82.9048 67.3406 82.9048C66.9429 82.9048 66.5878 82.9883 66.2753 83.1552C65.9664 83.3185 65.7213 83.5458 65.5402 83.837C65.3627 84.1246 65.2739 84.4531 65.2739 84.8224V90H64.0168Z" fill="black"/>
<path d="M19.5754 60V49.0909H20.8964V58.8281H25.9675V60H19.5754ZM31.1663 60.1705C30.4277 60.1705 29.7796 59.9947 29.2221 59.6431C28.6681 59.2915 28.2349 58.7997 27.9224 58.1676C27.6134 57.5355 27.4589 56.7969 27.4589 55.9517C27.4589 55.0994 27.6134 54.3555 27.9224 53.7198C28.2349 53.0842 28.6681 52.5906 29.2221 52.239C29.7796 51.8874 30.4277 51.7116 31.1663 51.7116C31.905 51.7116 32.5513 51.8874 33.1052 52.239C33.6628 52.5906 34.096 53.0842 34.405 53.7198C34.7175 54.3555 34.8737 55.0994 34.8737 55.9517C34.8737 56.7969 34.7175 57.5355 34.405 58.1676C34.096 58.7997 33.6628 59.2915 33.1052 59.6431C32.5513 59.9947 31.905 60.1705 31.1663 60.1705ZM31.1663 59.0412C31.7274 59.0412 32.1891 58.8974 32.5513 58.6097C32.9135 58.3221 33.1816 57.9439 33.3556 57.4751C33.5296 57.0064 33.6166 56.4986 33.6166 55.9517C33.6166 55.4048 33.5296 54.8952 33.3556 54.4229C33.1816 53.9506 32.9135 53.5689 32.5513 53.2777C32.1891 52.9865 31.7274 52.8409 31.1663 52.8409C30.6052 52.8409 30.1436 52.9865 29.7814 53.2777C29.4192 53.5689 29.1511 53.9506 28.9771 54.4229C28.803 54.8952 28.716 55.4048 28.716 55.9517C28.716 56.4986 28.803 57.0064 28.9771 57.4751C29.1511 57.9439 29.4192 58.3221 29.7814 58.6097C30.1436 58.8974 30.6052 59.0412 31.1663 59.0412ZM40.0952 63.2386C39.488 63.2386 38.966 63.1605 38.5292 63.0043C38.0924 62.8516 37.7284 62.6491 37.4372 62.397C37.1495 62.1484 36.9205 61.8821 36.75 61.598L37.7515 60.8949C37.8651 61.044 38.0089 61.2145 38.1829 61.4062C38.3569 61.6016 38.5949 61.7702 38.8967 61.9123C39.2021 62.0579 39.6016 62.1307 40.0952 62.1307C40.7557 62.1307 41.3008 61.9709 41.7305 61.6513C42.1602 61.3317 42.375 60.831 42.375 60.1491V58.4872H42.2685C42.1762 58.6364 42.0448 58.821 41.8743 59.0412C41.7074 59.2578 41.466 59.4513 41.1499 59.6218C40.8374 59.7887 40.4148 59.8722 39.8821 59.8722C39.2216 59.8722 38.6286 59.7159 38.103 59.4034C37.581 59.0909 37.1673 58.6364 36.8619 58.0398C36.5601 57.4432 36.4091 56.7187 36.4091 55.8665C36.4091 55.0284 36.5565 54.2987 36.8513 53.6772C37.146 53.0522 37.5562 52.5692 38.0817 52.2283C38.6073 51.8839 39.2145 51.7116 39.9035 51.7116C40.4361 51.7116 40.8587 51.8004 41.1712 51.978C41.4873 52.152 41.7287 52.3509 41.8956 52.5746C42.0661 52.7947 42.1975 52.9759 42.2898 53.1179H42.4177V51.8182H43.6321V60.2344C43.6321 60.9375 43.4723 61.5092 43.1527 61.9496C42.8367 62.3935 42.4106 62.7184 41.8743 62.9244C41.3417 63.1339 40.7486 63.2386 40.0952 63.2386ZM40.0526 58.7429C40.5569 58.7429 40.983 58.6275 41.331 58.3967C41.679 58.1658 41.9436 57.8338 42.1247 57.4006C42.3058 56.9673 42.3964 56.4489 42.3964 55.8452C42.3964 55.2557 42.3076 54.7354 42.13 54.2844C41.9525 53.8335 41.6897 53.4801 41.3417 53.2244C40.9937 52.9687 40.564 52.8409 40.0526 52.8409C39.5199 52.8409 39.076 52.9759 38.7209 53.2457C38.3694 53.5156 38.1048 53.8778 37.9272 54.3324C37.7532 54.7869 37.6662 55.2912 37.6662 55.8452C37.6662 56.4134 37.755 56.9158 37.9326 57.3526C38.1137 57.7859 38.38 58.1268 38.7316 58.3754C39.0867 58.6204 39.527 58.7429 40.0526 58.7429ZM51.6435 49.0909V60H50.3225V49.0909H51.6435ZM55.3789 55.0781V60H54.1218V51.8182H55.3362V53.0966H55.4428C55.6345 52.6811 55.9257 52.3473 56.3164 52.0952C56.707 51.8395 57.2112 51.7116 57.8291 51.7116C58.3831 51.7116 58.8679 51.8253 59.2833 52.0526C59.6988 52.2763 60.022 52.6172 60.2528 53.0753C60.4836 53.5298 60.599 54.1051 60.599 54.8011V60H59.3419V54.8864C59.3419 54.2436 59.175 53.7429 58.8412 53.3842C58.5074 53.022 58.0493 52.8409 57.4669 52.8409C57.0657 52.8409 56.707 52.9279 56.3909 53.1019C56.0784 53.2759 55.8316 53.5298 55.6505 53.8636C55.4694 54.1974 55.3789 54.6023 55.3789 55.0781Z" fill="black"/>
<path d="M16.9482 20V9.09091H21.2521C22.0795 9.09091 22.7844 9.24893 23.3668 9.56499C23.9492 9.87749 24.3931 10.3125 24.6985 10.87C25.0075 11.424 25.1619 12.0632 25.1619 12.7876C25.1619 13.5121 25.0057 14.1513 24.6932 14.7053C24.3807 15.2592 23.9279 15.6907 23.3349 15.9996C22.7454 16.3086 22.0316 16.4631 21.1935 16.4631H18.4503V14.6147H20.8207C21.2646 14.6147 21.6303 14.5384 21.918 14.3857C22.2092 14.2294 22.4258 14.0146 22.5678 13.7411C22.7134 13.4641 22.7862 13.1463 22.7862 12.7876C22.7862 12.4254 22.7134 12.1094 22.5678 11.8395C22.4258 11.5661 22.2092 11.3548 21.918 11.2056C21.6268 11.0529 21.2575 10.9766 20.81 10.9766H19.2546V20H16.9482ZM26.6175 20V11.8182H28.8174V13.2457H28.9026C29.0518 12.7379 29.3021 12.3544 29.6537 12.0952C30.0052 11.8324 30.4101 11.701 30.8682 11.701C30.9818 11.701 31.1043 11.7081 31.2357 11.7223C31.3671 11.7365 31.4825 11.756 31.5819 11.7809V13.7944C31.4754 13.7624 31.328 13.734 31.1398 13.7092C30.9516 13.6843 30.7794 13.6719 30.6231 13.6719C30.2893 13.6719 29.991 13.7447 29.7282 13.8903C29.469 14.0323 29.2631 14.2312 29.1104 14.4869C28.9612 14.7425 28.8866 15.0373 28.8866 15.3711V20H26.6175ZM36.071 20.1598C35.2436 20.1598 34.5281 19.984 33.9244 19.6325C33.3242 19.2773 32.8608 18.7837 32.5341 18.1516C32.2074 17.516 32.044 16.7791 32.044 15.9411C32.044 15.0959 32.2074 14.3572 32.5341 13.7251C32.8608 13.0895 33.3242 12.5959 33.9244 12.2443C34.5281 11.8892 35.2436 11.7116 36.071 11.7116C36.8984 11.7116 37.6122 11.8892 38.2124 12.2443C38.8161 12.5959 39.2812 13.0895 39.608 13.7251C39.9347 14.3572 40.098 15.0959 40.098 15.9411C40.098 16.7791 39.9347 17.516 39.608 18.1516C39.2812 18.7837 38.8161 19.2773 38.2124 19.6325C37.6122 19.984 36.8984 20.1598 36.071 20.1598ZM36.0817 18.402C36.4581 18.402 36.7724 18.2955 37.0245 18.0824C37.2766 17.8658 37.4666 17.571 37.5945 17.1982C37.7259 16.8253 37.7915 16.4009 37.7915 15.9251C37.7915 15.4492 37.7259 15.0249 37.5945 14.652C37.4666 14.2791 37.2766 13.9844 37.0245 13.7678C36.7724 13.5511 36.4581 13.4428 36.0817 13.4428C35.7017 13.4428 35.3821 13.5511 35.1229 13.7678C34.8672 13.9844 34.6737 14.2791 34.5423 14.652C34.4144 15.0249 34.3505 15.4492 34.3505 15.9251C34.3505 16.4009 34.4144 16.8253 34.5423 17.1982C34.6737 17.571 34.8672 17.8658 35.1229 18.0824C35.3821 18.2955 35.7017 18.402 36.0817 18.402ZM45.9734 11.8182V13.5227H40.9237V11.8182H45.9734ZM42.0795 20V11.2269C42.0795 10.6339 42.195 10.142 42.4258 9.75142C42.6602 9.36079 42.9798 9.06783 43.3846 8.87251C43.7894 8.6772 44.2493 8.57954 44.7642 8.57954C45.1122 8.57954 45.43 8.60618 45.7177 8.65945C46.0089 8.71271 46.2255 8.76065 46.3675 8.80327L45.9627 10.5078C45.8739 10.4794 45.7638 10.4528 45.6325 10.4279C45.5046 10.4031 45.3732 10.3906 45.2383 10.3906C44.9045 10.3906 44.6719 10.4688 44.5405 10.625C44.4091 10.7777 44.3434 10.9925 44.3434 11.2695V20H42.0795ZM47.3596 20V11.8182H49.6288V20H47.3596ZM48.4996 10.7635C48.1622 10.7635 47.8728 10.6516 47.6313 10.4279C47.3934 10.2006 47.2744 9.92898 47.2744 9.61293C47.2744 9.30043 47.3934 9.03232 47.6313 8.80859C47.8728 8.58132 48.1622 8.46768 48.4996 8.46768C48.8369 8.46768 49.1246 8.58132 49.3625 8.80859C49.604 9.03232 49.7247 9.30043 49.7247 9.61293C49.7247 9.92898 49.604 10.2006 49.3625 10.4279C49.1246 10.6516 48.8369 10.7635 48.4996 10.7635ZM53.7157 9.09091V20H51.4466V9.09091H53.7157ZM59.2622 20.1598C58.4205 20.1598 57.6961 19.9893 57.0889 19.6484C56.4852 19.304 56.02 18.8175 55.6933 18.1889C55.3666 17.5568 55.2032 16.8093 55.2032 15.9464C55.2032 15.1048 55.3666 14.3661 55.6933 13.7305C56.02 13.0948 56.4798 12.5994 57.0729 12.2443C57.6695 11.8892 58.3691 11.7116 59.1716 11.7116C59.7114 11.7116 60.2139 11.7987 60.6791 11.9727C61.1478 12.1431 61.5562 12.4006 61.9042 12.745C62.2558 13.0895 62.5292 13.5227 62.7245 14.0447C62.9198 14.5632 63.0175 15.1705 63.0175 15.8665V16.4897H56.1088V15.0835H60.8815C60.8815 14.7567 60.8105 14.4673 60.6684 14.2152C60.5264 13.9631 60.3293 13.766 60.0771 13.6239C59.8286 13.4783 59.5392 13.4055 59.2089 13.4055C58.8644 13.4055 58.559 13.4854 58.2927 13.6452C58.0299 13.8015 57.824 14.0128 57.6748 14.2791C57.5257 14.5419 57.4493 14.8349 57.4458 15.158V16.495C57.4458 16.8999 57.5203 17.2496 57.6695 17.5444C57.8222 17.8391 58.037 18.0664 58.314 18.2262C58.591 18.386 58.9195 18.4659 59.2994 18.4659C59.5516 18.4659 59.7824 18.4304 59.9919 18.3594C60.2014 18.2884 60.3808 18.1818 60.5299 18.0398C60.6791 17.8977 60.7927 17.7237 60.8708 17.5178L62.9695 17.6562C62.863 18.1605 62.6446 18.6009 62.3144 18.9773C61.9877 19.3501 61.5651 19.6413 61.0466 19.8509C60.5317 20.0568 59.9369 20.1598 59.2622 20.1598Z" fill="black"/>
<line x1="20" y1="29.5" x2="60" y2="29.5" stroke="#BB945F"/>
</svg>
